<svg width="64" height="54" viewBox="0 0 64 54" fill="none" xmlns="http://www.w3.org/2000/svg">
<path d="M49.0102 49.162L24.1541 37.0502V0.75824L49.0102 12.8701V49.1708V49.162ZM25.0327 36.5088L48.1316 47.7649V13.4115L25.0327 2.15543V36.5088Z" fill="white"/>
<path d="M39.7844 53.2488L14.9282 41.1369V4.83627L39.7844 16.9481V53.2488ZM15.8068 40.5955L38.9058 51.8516V17.4895L15.8068 6.24219V40.5955Z" fill="white"/>
<path d="M27.7123 30.9025L0.343262 17.6031L36.314 9.22867L63.6566 22.5281L27.7123 30.9025ZM2.94398 17.8912L27.8177 29.9769L61.0559 22.2312L36.1998 10.1456L2.94398 17.8912Z" fill="white"/>
<path d="M27.7123 41.2068L0.343262 27.8986L36.314 19.5242L63.6566 32.8237L27.7123 41.1981V41.2068ZM2.94398 28.1955L27.8177 40.2812L61.0559 32.5355L36.1998 20.4499L2.94398 28.1955Z" fill="white"/>
</svg>
